<?xml version="1.0" encoding="iso-8859-1"?>
<!-- Generator: Adobe Illustrator 19.0.0, SVG Export Plug-In . SVG Version: 6.00 Build 0)  -->
<svg version="1.1" id="Layer_1" xmlns="http://www.w3.org/2000/svg" xmlns:xlink="http://www.w3.org/1999/xlink" x="0px" y="0px"
	 viewBox="0 0 512.007 512.007" style="enable-background:new 0 0 512.007 512.007;" xml:space="preserve">
<g transform="translate(-1)">
	<g>
		<g>
			<path d="M508.9,342.583l-72.695-44.117v-85.342l73.242-52.591c3.831-2.748,4.71-8.081,1.954-11.904
				c-2.748-3.84-8.081-4.719-11.904-1.963l-72.073,51.755l-27.785-17.954l-48.768-31.505V59.08c0-4.719-3.814-8.533-8.533-8.533
				c-4.719,0-8.533,3.814-8.533,8.533v89.882l-76.8,49.621l-76.8-49.621V59.08c0-4.719-3.814-8.533-8.533-8.533
				s-8.533,3.814-8.533,8.533v89.882l-76.945,49.715l-72.226-43.827c-4.036-2.458-9.284-1.178-11.716,2.859
				c-2.458,4.028-1.169,9.276,2.859,11.716l72.695,44.117v85.342L4.563,351.474c-3.831,2.748-4.71,8.081-1.963,11.904
				c2.748,3.831,8.073,4.71,11.912,1.963l72.073-51.755l27.785,17.954l48.768,31.505v89.882c0,4.719,3.814,8.533,8.533,8.533
				s8.533-3.814,8.533-8.533v-89.882l76.8-49.621l76.8,49.621v89.882c0,4.719,3.814,8.533,8.533,8.533
				c4.719,0,8.533-3.814,8.533-8.533v-89.882l76.945-49.715l72.226,43.827c4.036,2.458,9.284,1.169,11.716-2.859
				C514.216,350.271,512.928,345.023,508.9,342.583z M171.552,307.203c-28.228,0-51.2-22.963-51.2-51.2s22.972-51.2,51.2-51.2
				c28.237,0,51.2,22.963,51.2,51.2S199.788,307.203,171.552,307.203z M342.338,307.203c-28.237,0-51.2-22.963-51.2-51.2
				s22.963-51.2,51.2-51.2c28.237,0,51.2,22.963,51.2,51.2S370.574,307.203,342.338,307.203z"/>
			<path d="M171.554,221.87c-18.825,0-34.133,15.309-34.133,34.133s15.309,34.133,34.133,34.133
				c18.825,0,34.133-15.309,34.133-34.133S190.379,221.87,171.554,221.87z"/>
			<path d="M342.338,221.87c-18.825,0-34.133,15.309-34.133,34.133s15.309,34.133,34.133,34.133
				c18.825,0,34.133-15.309,34.133-34.133S361.162,221.87,342.338,221.87z"/>
		</g>
	</g>
</g>
<g>
</g>
<g>
</g>
<g>
</g>
<g>
</g>
<g>
</g>
<g>
</g>
<g>
</g>
<g>
</g>
<g>
</g>
<g>
</g>
<g>
</g>
<g>
</g>
<g>
</g>
<g>
</g>
<g>
</g>
</svg>
